<svg xmlns="http://www.w3.org/2000/svg" viewBox="0 0 256 256">
  <defs>
    <linearGradient id="dc_g" x1="0" x2="1" y1="0" y2="1">
      <stop offset="0%" stop-color="#5865F2"/>
      <stop offset="100%" stop-color="#4752C4"/>
    </linearGradient>
  </defs>
  <circle cx="128" cy="128" r="128" fill="url(#dc_g)"/>
  <path fill="#fff" d="M186 92c-12-9-25-12-25-12l-4 7s-12-5-29-5-29 5-29 5l-4-7s-13 3-25 12c0 0-18 33-18 73 0 0 11 18 38 18 0 0 5-6 9-11-18-5-25-15-25-15s2 2 6 4c0 0 1 0 2 1 0 0 1 0 2 1 6 3 12 4 16 5 8 3 18 3 24 3s16 0 24-3c4-1 10-2 16-5l2-1 2-1c4-2 6-4 6-4s-7 10-25 15c4 5 9 11 9 11 27 0 38-18 38-18 0-40-18-73-18-73zM112 154c-6 0-11-6-11-13s5-13 11-13 11 6 11 13-5 13-11 13zm32 0c-6 0-11-6-11-13s5-13 11-13 11 6 11 13-5 13-11 13z"/>
</svg>

